<svg xmlns="http://www.w3.org/2000/svg" version="1.1" xmlns:xlink="http://www.w3.org/1999/xlink" xmlns:svgjs="http://svgjs.dev/svgjs" width="1000" height="623" viewBox="0 0 1000 623"><g transform="matrix(1,0,0,1,-0.6060606060606233,0.2522267206477409)"><svg viewBox="0 0 396 247" data-background-color="#ffffff" preserveAspectRatio="xMidYMid meet" height="623" width="1000" xmlns="http://www.w3.org/2000/svg" xmlns:xlink="http://www.w3.org/1999/xlink"><g id="tight-bounds" transform="matrix(1,0,0,1,0.2400000000000091,-0.09999999999999432)"><svg viewBox="0 0 395.52 247.2" height="247.2" width="395.52"><g><svg></svg></g><g><svg viewBox="0 0 395.52 247.2" height="247.2" width="395.52"><mask id="10ecb781-3e71-4a6f-8fe9-64bd1771f674"><rect width="640" height="400" fill="white"></rect><rect width="348.05760000000004" height="79.60509509900622" fill="black" y="83.79745245049688" x="23.731199999999973" id="transform-me"></rect></mask><g transform="matrix(1,0,0,1,39.55199999999999,96.56301771182383)"><svg viewBox="0 0 316.416 54.07396457635232" height="54.07396457635232" width="316.416"><g><svg viewBox="0 0 316.416 54.07396457635232" height="54.07396457635232" width="316.416"><g><svg viewBox="0 0 316.416 54.07396457635232" height="54.07396457635232" width="316.416"><g id="textblocktransform"><svg viewBox="0 0 316.416 54.07396457635232" height="54.07396457635232" width="316.416" id="textblock"><g><svg viewBox="0 0 316.416 54.07396457635232" height="54.07396457635232" width="316.416"><g transform="matrix(1,0,0,1,0,0)"><svg width="316.416" viewBox="2.9000000953674316 -35.349998474121094 208.8800048828125 35.69999694824219" height="54.07396457635232" data-palette-color="#ed2647"><path d="M23.6-9.2L23.6-9.2Q23.6-4.75 20.45-2.2 17.3 0.35 12.3 0.35L12.3 0.35Q6.75 0.35 3.1-1.8L3.1-1.8 3.1-7.15Q7.05-4.2 12.25-4.2L12.25-4.2Q15-4.2 16.6-5.48 18.2-6.75 18.2-9L18.2-9Q18.2-10.35 17.25-11.48 16.3-12.6 15.2-13.18 14.1-13.75 11.9-14.75L11.9-14.75Q10.6-15.35 10.08-15.6 9.55-15.85 8.35-16.5 7.15-17.15 6.58-17.6 6-18.05 5.15-18.85 4.3-19.65 3.93-20.45 3.55-21.25 3.23-22.33 2.9-23.4 2.9-24.65L2.9-24.65Q2.9-28.95 6.03-31.45 9.15-33.95 14.1-33.95L14.1-33.95Q18.65-33.95 21.85-32.35L21.85-32.35 21.85-27.25Q18.5-29.35 14.25-29.35L14.25-29.35Q11.5-29.35 9.93-28.13 8.35-26.9 8.35-24.9 8.35-22.9 9.9-21.7 11.45-20.5 14.65-19.1L14.65-19.1Q16.75-18.2 17.93-17.55 19.1-16.9 20.63-15.73 22.15-14.55 22.88-12.93 23.6-11.3 23.6-9.2ZM64.35-17.05L64.35 0 59.45 0 59.45-16Q59.45-21.45 55.05-21.45L55.05-21.45Q52.85-21.45 51.12-19.5 49.4-17.55 49.4-13.75L49.4-13.75 49.4 0 44.5 0 44.5-16Q44.5-21.45 40.05-21.45L40.05-21.45Q37.9-21.45 36.15-19.5 34.4-17.55 34.4-13.75L34.4-13.75 34.4 0 29.5 0 29.5-25.35 34.4-25.35 34.4-21.3Q36.55-25.7 41.55-25.7L41.55-25.7Q47.25-25.7 48.85-20.8L48.85-20.8Q49.9-23.15 51.9-24.43 53.9-25.7 56.4-25.7L56.4-25.7Q60.3-25.7 62.32-23.4 64.35-21.1 64.35-17.05L64.35-17.05ZM79.2-3.65L79.2-3.65Q81.59-3.65 82.97-4.98 84.34-6.3 84.34-8.45L84.34-8.45 84.34-11.3 80.55-11.3Q77.75-11.3 76.32-10.2 74.89-9.1 74.89-7.4L74.89-7.4Q74.89-5.65 76-4.65 77.09-3.65 79.2-3.65ZM84.5 0L84.5-3Q82.55 0.2 77.65 0.2L77.65 0.2Q74.05 0.2 71.87-1.88 69.7-3.95 69.7-7.15L69.7-7.15Q69.7-10.8 72.45-12.83 75.2-14.85 80.15-14.85L80.15-14.85 84.34-14.85 84.34-16.3Q84.34-18.9 83.09-20.23 81.84-21.55 78.95-21.55L78.95-21.55Q74.89-21.55 71.59-19.3L71.59-19.3 71.59-24.05Q74.55-25.75 79.4-25.75L79.4-25.75Q89.34-25.75 89.34-16.1L89.34-16.1 89.34 0 84.5 0ZM100.84-13.5L100.84 0 95.94 0 95.94-25.35 100.84-25.35 100.84-20.9Q102.69-25.6 107.49-25.6L107.49-25.6Q108.19-25.6 109.04-25.45L109.04-25.45 109.04-20.65Q107.99-21.1 106.69-21.1L106.69-21.1Q104.14-21.1 102.49-18.85 100.84-16.6 100.84-13.5L100.84-13.5ZM126.19-5.05L126.19-0.65Q124.54 0.25 122.14 0.25L122.14 0.25Q114.29 0.25 114.29-7.7L114.29-7.7 114.29-21.55 110.34-21.55 110.34-25.35 114.29-25.35 114.29-31.55 119.24-31.55 119.24-25.35 125.89-25.35 125.89-21.55 119.24-21.55 119.24-7.6Q119.24-3.95 122.74-3.95L122.74-3.95Q124.79-3.95 126.19-5.05L126.19-5.05ZM144.74 0L144.74 0 131.79 0 131.79-33.7 142.84-33.7Q148.14-33.7 151.19-31.23 154.24-28.75 154.24-24.7L154.24-24.7Q154.24-21.9 152.66-19.8 151.09-17.7 148.64-17.1L148.64-17.1Q151.39-16.6 153.26-14.55 155.14-12.5 155.14-9.05L155.14-9.05Q155.14-5.05 152.41-2.53 149.69 0 144.74 0ZM142.44-29.45L142.44-29.45 136.94-29.45 136.94-19.1 141.59-19.1Q145.34-19.1 147.16-20.63 148.99-22.15 148.99-24.6L148.99-24.6Q148.99-26.75 147.36-28.1 145.74-29.45 142.44-29.45ZM143.04-14.9L143.04-14.9 136.94-14.9 136.94-4.25 143.54-4.25Q149.89-4.25 149.89-9.5L149.89-9.5Q149.89-12.05 148.16-13.48 146.44-14.9 143.04-14.9ZM181.59-17.15L181.59 0 176.69 0 176.69-16Q176.69-18.65 175.36-20.05 174.04-21.45 171.84-21.45L171.84-21.45Q169.24-21.45 167.39-19.43 165.54-17.4 165.54-13.75L165.54-13.75 165.54 0 160.64 0 160.64-25.35 165.54-25.35 165.54-21Q167.79-25.7 173.44-25.7L173.44-25.7Q177.19-25.7 179.39-23.4 181.59-21.1 181.59-17.15L181.59-17.15ZM193.23-3.85L193.23 0 188.28 0 188.28-35.35 193.23-35.35 193.23-21.5Q195.93-25.7 200.88-25.7L200.88-25.7Q205.68-25.7 208.73-22.1 211.78-18.5 211.78-12.55L211.78-12.55Q211.78-7.2 208.88-3.43 205.98 0.35 200.93 0.35 195.88 0.35 193.23-3.85L193.23-3.85ZM193.23-12.85L193.23-12.85Q193.23-8.35 195.23-6.15 197.23-3.95 200.13-3.95L200.13-3.95Q202.93-3.95 204.83-6.33 206.73-8.7 206.73-12.45L206.73-12.45Q206.73-16.75 204.83-19.07 202.93-21.4 199.98-21.4L199.98-21.4Q197.38-21.4 195.31-19.3 193.23-17.2 193.23-12.85Z" opacity="1" transform="matrix(1,0,0,1,0,0)" fill="#ed2647" class="wordmark-text-0" data-fill-palette-color="primary" id="text-0"></path></svg></g></svg></g></svg></g></svg></g></svg></g></svg></g><g mask="url(#10ecb781-3e71-4a6f-8fe9-64bd1771f674)"><g transform="matrix(3.560951829595622, 0, 0, 3.560951829595622, 22.787149912662727, 1.0000000000000142)"><svg xmlns="http://www.w3.org/2000/svg" xmlns:xlink="http://www.w3.org/1999/xlink" version="1.1" x="0" y="0" viewBox="0.8730000257492065 15.552000045776367 98.27307891845703 68.85799407958984" enable-background="new 0 0 100 100" xml:space="preserve" height="68.85799407958984" width="98.27307891845703" class="icon-none" data-fill-palette-color="accent" id="none"><g fill="#ed2647" data-fill-palette-color="accent"><path d="M98.729 71.51l-12.8-11.324c-0.311-0.276-0.736-0.374-1.134-0.27l-8.471 2.234c-0.492 0.13-0.856 0.55-0.913 1.057l-0.208 1.857-4.223-1.035-0.001-9.892 4.448 4.062 3.999-4.382L53.746 30.38 27.835 53.586l3.957 4.418 4.439-3.974 0.027 30.38 7.561-0.001V67.928h7.27v16.481l19.894-0.001-0.002-18.984 4.069 0.998-0.614 5.495c-0.047 0.402 0.106 0.801 0.412 1.067L87.52 84.103c0.233 0.206 0.524 0.307 0.815 0.307 0.341 0 0.678-0.14 0.922-0.413l9.575-10.737c0.22-0.245 0.331-0.567 0.312-0.896C99.123 72.034 98.975 71.729 98.729 71.51zM51.089 61.143h-7.27v-7.499h7.27V61.143zM63.651 61.143h-7.271v-7.499h7.271V61.143zM88.228 81.438l-11.267-9.886 0.511-4.538 1.89 0.464c0.067 0.824 0.641 1.551 1.487 1.757 1.057 0.26 2.126-0.387 2.387-1.446 0.26-1.058-0.388-2.126-1.446-2.385-0.806-0.198-1.615 0.133-2.072 0.768l-2.094-0.515 0.15-1.332 7.012-1.852 11.378 10.065L88.228 81.438z" fill="#ed2647" data-fill-palette-color="accent"></path></g><rect x="13.353" y="34.025" width="4.837" height="4.836" fill="#ed2647" data-fill-palette-color="accent"></rect><rect x="20.608" y="34.025" width="4.837" height="4.836" fill="#ed2647" data-fill-palette-color="accent"></rect><rect x="27.863" y="34.025" width="4.837" height="4.836" fill="#ed2647" data-fill-palette-color="accent"></rect><rect x="6.027" y="41.29" width="4.837" height="4.837" fill="#ed2647" data-fill-palette-color="accent"></rect><rect x="13.282" y="41.29" width="4.837" height="4.837" fill="#ed2647" data-fill-palette-color="accent"></rect><rect x="20.538" y="41.29" width="4.836" height="4.837" fill="#ed2647" data-fill-palette-color="accent"></rect><rect x="27.792" y="41.29" width="4.837" height="4.837" fill="#ed2647" data-fill-palette-color="accent"></rect><rect x="6.098" y="48.545" width="4.837" height="4.836" fill="#ed2647" data-fill-palette-color="accent"></rect><rect x="13.353" y="48.545" width="4.837" height="4.836" fill="#ed2647" data-fill-palette-color="accent"></rect><rect x="20.608" y="48.545" width="4.837" height="4.836" fill="#ed2647" data-fill-palette-color="accent"></rect><path d="M12.841 23.177v-5.691c0-1.068-0.867-1.934-1.934-1.934-1.068 0-1.934 0.865-1.934 1.934v5.691H12.841z" fill="#ed2647" data-fill-palette-color="accent"></path><path d="M29.769 23.177v-5.691c0-1.068-0.866-1.934-1.934-1.934-1.067 0-1.934 0.865-1.934 1.934v5.691H29.769z" fill="#ed2647" data-fill-palette-color="accent"></path><path d="M25.445 55.944H5.227c-0.8 0-1.451-0.65-1.451-1.451V31.848c0-0.04 0.003-0.081 0.006-0.12h31.165c0.003 0.04 0.006 0.08 0.006 0.12v8.77l2.902-2.646V23.173H0.873v0.004 31.316c0 2.4 1.953 4.354 4.354 4.354h20.218V55.944zM25.904 26.623v-1.725-1.721h3.862v1.721 1.725 0.069h-0.003c-0.037 1.034-0.884 1.862-1.928 1.862-1.043 0-1.891-0.828-1.928-1.862h-0.003V26.623zM8.973 26.623v-1.725-1.721h3.862v1.721 1.725 0.069h-0.003c-0.037 1.034-0.884 1.862-1.927 1.862-1.043 0-1.892-0.828-1.928-1.862H8.973V26.623z" fill="#ed2647" data-fill-palette-color="accent"></path></svg></g></g></svg></g><defs></defs></svg><rect width="395.52" height="247.2" fill="none" stroke="none" visibility="hidden"></rect></g></svg></g></svg>